<svg width="100" height="100" viewBox="0 0 100 100" fill="none" xmlns="http://www.w3.org/2000/svg">
<rect width="100" height="100" rx="16" fill="black"/>
<path d="M24 50.7143C24 46.4147 24 42.137 24 37.8374C24 36.9819 24.0435 36.1264 24.1741 35.2708C24.6092 32.3533 25.61 31.3881 28.5471 31.0809C29.1345 31.0151 29.7872 30.9932 30.3529 31.1467C34.356 32.2436 38.1634 31.9803 42.1013 30.4886C45.0602 29.3699 48.0191 30.2912 50.5863 32.0462C53.1318 33.7792 55.438 33.6475 58.027 32.0462C63.0092 28.9311 68.6876 29.6331 71.9511 33.5598C73.6916 35.6657 74.3443 38.2104 74.6054 40.8647C74.8012 42.9926 74.9317 45.1424 74.9535 47.2702C74.997 53.2151 75.0405 59.1599 74.9317 65.1048C74.8447 70.0405 71.1026 72.322 66.6425 70.216C65.7288 69.7992 64.9455 68.6366 64.5757 67.6494C64.1623 66.5526 64.1623 65.2364 64.1406 64.0299C64.097 58.0192 64.1406 52.0305 64.0753 46.0198C64.0753 44.0675 63.9012 42.0932 62.2913 40.6015C60.8988 39.3291 58.9625 39.2853 57.5048 40.5137C55.7208 42.0054 55.1769 44.0455 55.0029 46.2392C54.9158 47.336 54.9376 48.4329 54.9376 49.5516C54.9376 54.5752 54.9158 59.5987 54.9376 64.6222C54.9376 70.238 52.3268 71.5103 47.0618 70.3476C46.0827 70.1283 45.0819 68.8121 44.5816 67.7591C44.0812 66.7062 44.1247 65.368 44.1247 64.1615C44.0812 58.458 44.1247 52.7544 44.0812 47.0728C44.0812 45.8443 43.9724 44.6159 43.7331 43.4313C43.3197 41.2596 41.9925 39.9434 40.2085 39.7459C38.5115 39.5485 36.684 40.6015 35.966 42.5977C35.3786 44.243 35.0305 46.0418 34.9652 47.7748C34.8129 52.1841 34.9 56.5933 34.9 61.0026C34.9 62.2969 34.9 63.5692 34.9 64.8635C34.9 70.6767 31.5712 71.4884 26.8066 70.3038C25.871 70.0625 24.9573 68.7682 24.5222 67.7372C24.0653 66.6623 24.087 65.3461 24.0653 64.1176C24.0218 59.6425 24.0653 55.1674 24.0653 50.6924L24 50.7143Z" fill="white"/>
</svg>
