<svg width="110" height="110" viewBox="0 0 110 110" fill="none" xmlns="http://www.w3.org/2000/svg">
<g clip-path="url(#clip0_43_2)">
<path d="M110 0H0V110H110V0Z" fill="#E0E7FF"/>
<mask id="mask0_43_2" style="mask-type:luminance" maskUnits="userSpaceOnUse" x="17" y="17" width="76" height="76">
<path d="M93 17H17V93H93V17Z" fill="white"/>
</mask>
<g mask="url(#mask0_43_2)">
<path d="M88.25 25.1083L84.8917 21.75L21.75 84.8917L25.1083 88.25L29.8583 83.5H78.75C80.0087 83.4976 81.2176 82.9965 82.1059 82.1059C82.9965 81.2176 83.4976 80.0087 83.5 78.75V29.8583L88.25 25.1083ZM78.75 78.75H34.6083L53.1166 60.2416L58.7667 65.8917C59.6574 66.7824 60.8663 67.2811 62.125 67.2811C63.3837 67.2811 64.5926 66.7824 65.4833 65.8917L69.25 62.125L78.75 71.6179V78.75ZM78.75 64.899L72.6083 58.7573C71.7176 57.8666 70.5087 57.3679 69.25 57.3679C67.9913 57.3679 66.7824 57.8666 65.8917 58.7573L62.125 62.524L56.4796 56.8786L78.75 34.6083V64.899Z" fill="black"/>
<path d="M31.25 69.25V62.125L43.125 50.2571L46.3859 53.5204L49.7489 50.1574L46.4833 46.8917C45.5926 46.0011 44.3837 45.5 43.125 45.5C41.8663 45.5 40.6574 46.0011 39.7667 46.8917L31.25 55.4085V31.25H69.25V26.5H31.25C29.9913 26.5024 28.7824 27.0011 27.8917 27.8917C27.0011 28.7824 26.5024 29.9913 26.5 31.25V69.25H31.25Z" fill="black"/>
</g>
</g>
<defs>
<clipPath id="clip0_43_2">
<rect width="110" height="110" fill="white"/>
</clipPath>
</defs>
</svg>
